# xmcd
#
# Track frame offsets: 
#        183
#        12988
#        24913
#        36708
#        51948
#        62945
#        73815
#        85485
#        100005
#        113220
#        125803
#        137515
#
# Disc length: 1977 seconds
#
# Revision: 0
# Processed by: cddbd v1.5.2PL0 Copyright (c) Steve Scherf et al.
# Submitted via: ExactAudioCopy v1.3
#
DISCID=af07b70c
DTITLE=Sam and Dave - Soul Men
DYEAR=1997
DGENRE=Soul
TTITLE0=Soul Man
TTITLE1=You Don't Know What You Mean To Me
TTITLE2=Soothe Me
TTITLE3=When Something Is Wrong With My Baby
TTITLE4=Can't You Find Another Way (Of Doing It Baby)
TTITLE5=Hold On I'm Comin'
TTITLE6=You Don't Know Like I Know
TTITLE7=Don't Pull Your Love
TTITLE8=I Thank You
TTITLE9=You Got Me Hummin
TTITLE10=I Said I Wasn't Gonna Tell Nobody
TTITLE11=Soul Sister, Brown Sugar
EXTD=
EXTT0=
EXTT1=
EXTT2=
EXTT3=
EXTT4=
EXTT5=
EXTT6=
EXTT7=
EXTT8=
EXTT9=
EXTT10=
EXTT11=
PLAYORDER=
